<svg width="184" height="184" viewBox="0 0 184 184" fill="none" xmlns="http://www.w3.org/2000/svg">
<circle cx="95" cy="87" r="62" fill="#EDE2D0"/>
<circle cx="174.5" cy="35" r="9" fill="#EDE2D0"/>
<circle cx="46.5" cy="175" r="9" fill="#EDE2D0"/>
<circle cx="157" cy="153.5" r="4.5" fill="#EDE2D0"/>
<circle cx="13" cy="94.5" r="4.5" fill="#EDE2D0"/>
<circle cx="9.5" cy="9" r="9" fill="#EDE2D0"/>
<path d="M93.957 93.8982V98.0607C93.957 101.529 92.5695 102.917 89.1008 102.917H84.9383C81.4695 102.917 80.082 101.529 80.082 98.0607V93.8982C80.082 90.4295 81.4695 89.042 84.9383 89.042H89.1008C92.5695 89.042 93.957 90.4295 93.957 93.8982Z" fill="white" fill-opacity="0.82"/>
<path d="M103.98 85.958C107.812 85.958 110.918 82.852 110.918 79.0205C110.918 75.189 107.812 72.083 103.98 72.083C100.149 72.083 97.043 75.189 97.043 79.0205C97.043 82.852 100.149 85.958 103.98 85.958Z" fill="white" fill-opacity="0.82"/>
<path d="M99.7872 102.917C99.371 102.917 98.9856 102.686 98.7852 102.331C98.5847 101.961 98.5847 101.529 98.8006 101.159L100.296 98.6618C100.62 98.1068 101.329 97.9372 101.884 98.2609C102.439 98.5847 102.608 99.2938 102.285 99.8488L102.007 100.311C105.815 99.3247 108.621 95.8713 108.621 91.7705C108.621 91.1384 109.145 90.6143 109.777 90.6143C110.409 90.6143 110.918 91.1384 110.918 91.7859C110.918 97.9218 105.923 102.917 99.7872 102.917Z" fill="white" fill-opacity="0.82"/>
<path d="M81.2383 84.3701C80.6062 84.3701 80.082 83.8613 80.082 83.2138C80.082 77.078 85.077 72.083 91.2129 72.083C91.6445 72.083 92.0145 72.3143 92.2304 72.6688C92.4308 73.0388 92.4308 73.4705 92.2149 73.8405L90.7195 76.3226C90.3804 76.8776 89.6712 77.0626 89.1316 76.7234C88.5766 76.3997 88.407 75.6905 88.7308 75.1355L89.0083 74.673C85.2158 75.6597 82.3945 79.113 82.3945 83.2138C82.3945 83.8613 81.8704 84.3701 81.2383 84.3701Z" fill="white" fill-opacity="0.82"/>
</svg>
